<svg width="139" height="30" viewBox="0 0 139 30" fill="none" xmlns="http://www.w3.org/2000/svg" xmlns:xlink="http://www.w3.org/1999/xlink">
<rect x="0.5" y="0.5" width="29" height="29" rx="9.5" fill="#0C0C0C"/>
<rect x="0.5" y="0.5" width="29" height="29" rx="9.5" stroke="#0C0C0C"/>
<path d="M15 2V28" stroke="white" stroke-width="1.5"/>
<path d="M24.1895 5.80457L5.80468 24.1893" stroke="white" stroke-width="1.5"/>
<path d="M28 15L2 15" stroke="white" stroke-width="1.5"/>
<path d="M24.1953 24.1893L5.81054 5.80455" stroke="white" stroke-width="1.5"/>
<g id="Repeat group 1_inner" data-figma-trr="r8u4-0f">
<circle cx="15" cy="7" r="2" fill="white"/>
</g>
<use xlink:href="#Repeat%20group%201_inner" transform="translate(15.0003 -6.21374) rotate(45)"/>
<use xlink:href="#Repeat%20group%201_inner" transform="translate(30.0008 -0.000731796) rotate(90)"/>
<use xlink:href="#Repeat%20group%201_inner" transform="translate(36.2146 14.9995) rotate(135)"/>
<use xlink:href="#Repeat%20group%201_inner" transform="translate(30.0015 30.0001) rotate(-180)"/>
<use xlink:href="#Repeat%20group%201_inner" transform="translate(15.0013 36.2138) rotate(-135)"/>
<use xlink:href="#Repeat%20group%201_inner" transform="translate(0.000732273 30.0008) rotate(-90)"/>
<use xlink:href="#Repeat%20group%201_inner" transform="translate(-6.21301 15.0006) rotate(-45)"/>
<path d="M43.5321 9.123V21.111C43.5321 21.615 43.5951 22.02 43.7211 22.326C43.8651 22.632 44.0901 22.857 44.3961 23.001C44.7021 23.127 45.1071 23.19 45.6111 23.19V24H40.0491V23.19C40.5351 23.19 40.9311 23.127 41.2371 23.001C41.5431 22.857 41.7681 22.632 41.9121 22.326C42.0561 22.02 42.1281 21.615 42.1281 21.111V7.719C41.7321 7.251 41.3541 6.945 40.9941 6.801C40.6521 6.657 40.1661 6.585 39.5361 6.585V5.775H44.3421L53.4411 18.627V8.691C53.4411 8.169 53.3781 7.764 53.2521 7.476C53.1261 7.17 52.9101 6.945 52.6041 6.801C52.3161 6.657 51.9111 6.585 51.3891 6.585V5.775H56.8161V6.585C56.3661 6.585 55.9971 6.657 55.7091 6.801C55.4211 6.945 55.2051 7.17 55.0611 7.476C54.9351 7.782 54.8721 8.187 54.8721 8.691V24.27H54.2781L43.5321 9.123ZM63.1288 24.27C62.0128 24.27 61.0408 23.973 60.2128 23.379C59.4028 22.767 58.7728 21.957 58.3228 20.949C57.8908 19.941 57.6748 18.843 57.6748 17.655C57.6748 16.467 57.8998 15.369 58.3498 14.361C58.8178 13.335 59.4568 12.525 60.2668 11.931C61.0948 11.337 62.0488 11.04 63.1288 11.04C64.2268 11.04 65.1898 11.346 66.0178 11.958C66.8458 12.552 67.4758 13.353 67.9078 14.361C68.3578 15.351 68.5828 16.449 68.5828 17.655C68.5828 18.843 68.3488 19.941 67.8808 20.949C67.4308 21.957 66.7918 22.767 65.9638 23.379C65.1538 23.973 64.2088 24.27 63.1288 24.27ZM63.2908 23.109C63.8668 23.109 64.3618 22.938 64.7758 22.596C65.1898 22.254 65.5048 21.768 65.7208 21.138C65.9368 20.49 66.0448 19.743 66.0448 18.897C66.0628 17.547 65.9548 16.368 65.7208 15.36C65.5048 14.352 65.1628 13.569 64.6948 13.011C64.2268 12.453 63.6508 12.174 62.9668 12.174C62.3908 12.174 61.8958 12.354 61.4818 12.714C61.0678 13.056 60.7528 13.551 60.5368 14.199C60.3208 14.829 60.2128 15.558 60.2128 16.386C60.2128 17.754 60.3208 18.942 60.5368 19.95C60.7708 20.94 61.1128 21.714 61.5628 22.272C62.0128 22.83 62.5888 23.109 63.2908 23.109ZM69.8664 23.217C70.4784 23.217 70.9014 23.118 71.1354 22.92C71.3694 22.722 71.4864 22.398 71.4864 21.948V14.172C71.4864 13.704 71.3694 13.398 71.1354 13.254C70.9014 13.092 70.5324 13.11 70.0284 13.308L69.7854 12.525L73.6464 11.04H73.8354V13.605C74.2494 12.831 74.7264 12.21 75.2664 11.742C75.8244 11.274 76.4274 11.04 77.0754 11.04C77.5254 11.04 77.8854 11.175 78.1554 11.445C78.4434 11.697 78.5874 12.03 78.5874 12.444C78.5874 12.822 78.4704 13.155 78.2364 13.443C78.0024 13.713 77.6874 13.848 77.2914 13.848C77.1114 13.848 76.9314 13.812 76.7514 13.74C76.5894 13.65 76.4274 13.533 76.2654 13.389C76.2294 13.353 76.1934 13.326 76.1574 13.308C76.0674 13.218 75.9684 13.146 75.8604 13.092C75.7704 13.038 75.6894 13.011 75.6174 13.011C75.3654 13.011 75.0864 13.155 74.7804 13.443C74.4924 13.731 74.1774 14.154 73.8354 14.712V21.948C73.8354 22.398 73.9524 22.722 74.1864 22.92C74.4384 23.118 74.8794 23.217 75.5094 23.217H75.7794V24H69.8664V23.217ZM82.9953 24.189C82.2213 24.189 81.6183 23.937 81.1863 23.433C80.7543 22.929 80.5383 22.155 80.5383 21.111V12.552H78.8373V11.661C79.3593 11.589 79.8453 11.364 80.2953 10.986C80.7453 10.608 81.1233 10.14 81.4293 9.582C81.7353 9.006 81.9513 8.403 82.0773 7.773H82.8603V11.31H85.9383V12.552H82.8603L82.8873 20.733C82.8873 21.291 82.9683 21.705 83.1303 21.975C83.3103 22.227 83.5893 22.353 83.9673 22.353C84.2913 22.353 84.5793 22.254 84.8313 22.056C85.0833 21.84 85.3713 21.498 85.6953 21.03L86.2893 21.408C85.8573 22.362 85.3713 23.064 84.8313 23.514C84.3093 23.964 83.6973 24.189 82.9953 24.189ZM86.7901 23.217C87.4021 23.217 87.8251 23.118 88.0591 22.92C88.2931 22.704 88.4101 22.362 88.4101 21.894V8.394C88.4101 7.926 88.2841 7.62 88.0321 7.476C87.7981 7.314 87.4471 7.323 86.9791 7.503L86.7091 6.72L90.5701 5.235H90.7321V13.227L91.0021 12.93C91.5241 12.336 92.0731 11.877 92.6491 11.553C93.2431 11.211 93.9181 11.04 94.6741 11.04C95.7541 11.04 96.5641 11.4 97.1041 12.12C97.6441 12.84 97.9141 13.956 97.9141 15.468V21.894C97.9141 22.362 98.0311 22.704 98.2651 22.92C98.4991 23.118 98.9131 23.217 99.5071 23.217V24H93.9991V23.217C94.5751 23.217 94.9801 23.118 95.2141 22.92C95.4481 22.704 95.5651 22.362 95.5651 21.894V15.684C95.5651 14.712 95.3941 14.001 95.0521 13.551C94.7281 13.101 94.2061 12.876 93.4861 12.876C93.0001 12.876 92.5501 12.984 92.1361 13.2C91.7401 13.398 91.2721 13.713 90.7321 14.145V21.894C90.7321 22.362 90.8491 22.704 91.0831 22.92C91.3171 23.118 91.7221 23.217 92.2981 23.217V24H86.7901V23.217ZM104.411 24.27C103.853 24.27 103.268 24.216 102.656 24.108C102.044 24.018 101.495 23.892 101.009 23.73C100.937 23.712 100.847 23.694 100.739 23.676V19.815H101.63C101.666 20.661 101.819 21.336 102.089 21.84C102.359 22.326 102.692 22.668 103.088 22.866C103.484 23.064 103.952 23.163 104.492 23.163C105.284 23.163 105.887 22.974 106.301 22.596C106.715 22.218 106.922 21.75 106.922 21.192C106.922 20.67 106.769 20.238 106.463 19.896C106.157 19.536 105.662 19.203 104.978 18.897L103.358 18.141C102.512 17.745 101.873 17.268 101.441 16.71C101.027 16.134 100.82 15.459 100.82 14.685C100.82 13.983 100.991 13.362 101.333 12.822C101.675 12.264 102.17 11.832 102.818 11.526C103.466 11.202 104.249 11.04 105.167 11.04C106.085 11.04 107.003 11.175 107.921 11.445C108.011 11.463 108.092 11.481 108.164 11.499C108.236 11.517 108.308 11.544 108.38 11.58V14.955H107.516C107.462 13.965 107.21 13.245 106.76 12.795C106.328 12.345 105.77 12.12 105.086 12.12C104.366 12.12 103.799 12.282 103.385 12.606C102.989 12.93 102.791 13.362 102.791 13.902C102.791 14.352 102.935 14.748 103.223 15.09C103.529 15.414 103.997 15.72 104.627 16.008L106.274 16.764C107.138 17.178 107.795 17.691 108.245 18.303C108.695 18.897 108.92 19.59 108.92 20.382C108.92 21.57 108.524 22.515 107.732 23.217C106.94 23.919 105.833 24.27 104.411 24.27ZM114.071 24.189C113.297 24.189 112.694 23.937 112.262 23.433C111.83 22.929 111.614 22.155 111.614 21.111V12.552H109.913V11.661C110.435 11.589 110.921 11.364 111.371 10.986C111.821 10.608 112.199 10.14 112.505 9.582C112.811 9.006 113.027 8.403 113.153 7.773H113.936V11.31H117.014V12.552H113.936L113.963 20.733C113.963 21.291 114.044 21.705 114.206 21.975C114.386 22.227 114.665 22.353 115.043 22.353C115.367 22.353 115.655 22.254 115.907 22.056C116.159 21.84 116.447 21.498 116.771 21.03L117.365 21.408C116.933 22.362 116.447 23.064 115.907 23.514C115.385 23.964 114.773 24.189 114.071 24.189ZM126.478 24.189C126.01 24.189 125.623 24.018 125.317 23.676C125.029 23.334 124.894 22.794 124.912 22.056L124.993 14.712C124.993 13.812 124.822 13.155 124.48 12.741C124.156 12.309 123.652 12.093 122.968 12.093C122.554 12.093 122.212 12.156 121.942 12.282C121.672 12.408 121.456 12.597 121.294 12.849C121.204 13.011 121.141 13.182 121.105 13.362C121.069 13.542 121.051 13.749 121.051 13.983C121.051 14.109 121.042 14.226 121.024 14.334C121.006 14.748 120.88 15.063 120.646 15.279C120.43 15.495 120.16 15.603 119.836 15.603C119.494 15.603 119.215 15.495 118.999 15.279C118.783 15.045 118.675 14.739 118.675 14.361C118.675 13.803 118.864 13.272 119.242 12.768C119.62 12.264 120.16 11.85 120.862 11.526C121.564 11.202 122.365 11.04 123.265 11.04C124.579 11.04 125.578 11.364 126.262 12.012C126.964 12.642 127.306 13.641 127.288 15.009L127.207 21.246C127.207 21.624 127.243 21.894 127.315 22.056C127.405 22.218 127.549 22.299 127.747 22.299C127.909 22.299 128.071 22.254 128.233 22.164C128.413 22.056 128.611 21.876 128.827 21.624L129.286 22.11L129.07 22.407C128.62 23.001 128.179 23.451 127.747 23.757C127.333 24.045 126.91 24.189 126.478 24.189ZM120.997 24.243C120.187 24.243 119.521 23.964 118.999 23.406C118.477 22.848 118.216 22.11 118.216 21.192C118.216 20.184 118.54 19.347 119.188 18.681C119.836 17.997 120.754 17.385 121.942 16.845C122.518 16.575 123.067 16.341 123.589 16.143C124.093 15.927 124.588 15.72 125.074 15.522L125.101 16.602C124.111 16.98 123.283 17.349 122.617 17.709C121.915 18.105 121.393 18.51 121.051 18.924C120.727 19.338 120.565 19.86 120.565 20.49C120.565 21.156 120.727 21.66 121.051 22.002C121.375 22.344 121.816 22.515 122.374 22.515C122.788 22.515 123.211 22.407 123.643 22.191C124.075 21.957 124.543 21.606 125.047 21.138L125.02 21.975C124.948 22.065 124.885 22.137 124.831 22.191C124.795 22.245 124.732 22.317 124.642 22.407C124.12 22.947 123.553 23.388 122.941 23.73C122.329 24.072 121.681 24.243 120.997 24.243ZM129.67 23.217C130.282 23.217 130.705 23.118 130.939 22.92C131.173 22.722 131.29 22.398 131.29 21.948V14.172C131.29 13.704 131.173 13.398 130.939 13.254C130.705 13.092 130.336 13.11 129.832 13.308L129.589 12.525L133.45 11.04H133.639V13.605C134.053 12.831 134.53 12.21 135.07 11.742C135.628 11.274 136.231 11.04 136.879 11.04C137.329 11.04 137.689 11.175 137.959 11.445C138.247 11.697 138.391 12.03 138.391 12.444C138.391 12.822 138.274 13.155 138.04 13.443C137.806 13.713 137.491 13.848 137.095 13.848C136.915 13.848 136.735 13.812 136.555 13.74C136.393 13.65 136.231 13.533 136.069 13.389C136.033 13.353 135.997 13.326 135.961 13.308C135.871 13.218 135.772 13.146 135.664 13.092C135.574 13.038 135.493 13.011 135.421 13.011C135.169 13.011 134.89 13.155 134.584 13.443C134.296 13.731 133.981 14.154 133.639 14.712V21.948C133.639 22.398 133.756 22.722 133.99 22.92C134.242 23.118 134.683 23.217 135.313 23.217H135.583V24H129.67V23.217Z" fill="#0C0C0C"/>
</svg>
